<svg width="24" height="24" viewBox="0 0 24 24" fill="none" xmlns="http://www.w3.org/2000/svg"><path fill-rule="evenodd" clip-rule="evenodd" d="M12.0002 4C14.2093 4 16.0002 5.79086 16.0002 8C16.0002 10.2091 14.2093 12 12.0002 12C9.79104 12 8.00018 10.2091 8.00018 8C8.00018 5.79086 9.79104 4 12.0002 4ZM12.0002 5.5C10.6195 5.5 9.50018 6.61929 9.50018 8C9.50018 9.38071 10.6195 10.5 12.0002 10.5C13.3809 10.5 14.5002 9.38071 14.5002 8C14.5002 6.61929 13.3809 5.5 12.0002 5.5ZM12.0002 13.5C13.3844 13.5 15.3055 13.9511 16.846 14.6629C18.784 15.5584 20.0002 16.7681 20.0002 18.25C20.0002 19.2165 19.2167 20 18.2502 20H5.75018C4.78368 20 4.00018 19.2165 4.00018 18.25C4.00018 16.7681 5.2164 15.5584 7.15434 14.6629C8.69482 13.9511 10.616 13.5 12.0002 13.5ZM12.0002 15C10.8281 15 9.11837 15.4078 7.78352 16.0246C6.2207 16.7467 5.50018 17.5375 5.50018 18.25C5.50018 18.3881 5.61211 18.5 5.75018 18.5H18.2502C18.3883 18.5 18.5002 18.3881 18.5002 18.25C18.5002 17.5375 17.7797 16.7467 16.2168 16.0246C14.882 15.4078 13.1723 15 12.0002 15Z" fill="#333333"/></svg>