<svg width="24" height="24" viewBox="0 0 24 24" fill="none" xmlns="http://www.w3.org/2000/svg"><path fill-rule="evenodd" clip-rule="evenodd" d="M22.0007 7.25C22.0007 6.2835 21.2172 5.5 20.2507 5.5H3.75067C2.78417 5.5 2.00067 6.2835 2.00067 7.25V9V12V16.75C2.00067 17.7165 2.78417 18.5 3.75067 18.5H20.2507C21.2172 18.5 22.0007 17.7165 22.0007 16.75V12V9V7.25ZM3.50067 16.75V12H20.5007V16.75C20.5007 16.8881 20.3887 17 20.2507 17H3.75067C3.6126 17 3.50067 16.8881 3.50067 16.75ZM3.50067 9H20.5007V7.25C20.5007 7.11193 20.3887 7 20.2507 7H3.75067C3.6126 7 3.50067 7.11193 3.50067 7.25V9ZM18.2507 15.5H15.2507C14.8365 15.5 14.5007 15.1642 14.5007 14.75C14.5007 14.3358 14.8365 14 15.2507 14H18.2507C18.6649 14 19.0007 14.3358 19.0007 14.75C19.0007 15.1642 18.6649 15.5 18.2507 15.5Z" fill="#333333"/></svg>