<svg width="24" height="24" viewBox="0 0 24 24" fill="none" xmlns="http://www.w3.org/2000/svg"><path fill-rule="evenodd" clip-rule="evenodd" d="M12.0007 3C15.8644 3 19.0007 6.09318 19.0007 9.91404C19.0007 11.7409 17.9094 14.3002 16.1526 17.1241L15.9652 17.4223C15.2503 18.5493 14.4744 19.6392 13.7945 20.4873L13.5511 20.7878C12.8381 21.6568 12.4569 22 12.0007 22C11.4951 22 11.0817 21.5785 10.2069 20.4874L10.0927 20.3438C9.44095 19.5181 8.71136 18.4868 8.0361 17.4225L7.84874 17.1243C6.09194 14.3005 5.00067 11.7411 5.00067 9.91404C5.00067 6.09318 8.13699 3 12.0007 3ZM12.0007 20.2807C12.1576 20.1119 12.3457 19.893 12.554 19.6361L12.7325 19.4128C13.3513 18.6286 14.0508 17.6398 14.6986 16.6187C16.4195 13.9062 17.5007 11.432 17.5007 9.91404C17.5007 6.92629 15.0405 4.5 12.0007 4.5C8.9608 4.5 6.50067 6.92629 6.50067 9.91404C6.50067 11.3808 7.50978 13.7399 9.12992 16.3439L9.3027 16.6189C9.95048 17.64 10.65 18.6287 11.2689 19.4129L11.4474 19.6362L11.5831 19.8016C11.6935 19.9346 11.797 20.0551 11.8915 20.1609L12.0007 20.2807ZM12.0007 6.5C13.9337 6.5 15.5007 8.067 15.5007 10C15.5007 11.933 13.9337 13.5 12.0007 13.5C10.0677 13.5 8.50067 11.933 8.50067 10C8.50067 8.067 10.0677 6.5 12.0007 6.5ZM12.0007 8C10.8961 8 10.0007 8.89543 10.0007 10C10.0007 11.1046 10.8961 12 12.0007 12C13.1052 12 14.0007 11.1046 14.0007 10C14.0007 8.89543 13.1052 8 12.0007 8Z" fill="#333333"/></svg>