<svg width="48" height="48" viewBox="0 0 48 48" fill="none" xmlns="http://www.w3.org/2000/svg"><g id="favorite"><path id="favorite_2" fill-rule="evenodd" clip-rule="evenodd" d="M34.4631 6.35119C30.619 5.96679 26.5974 7.49013 24.1364 10.1926L24.0013 10.344L23.8662 10.1926C21.4053 7.49013 17.3837 5.96679 13.5396 6.35119C8.14359 6.89079 4.50134 10.9254 4.50134 17.5C4.50134 23.1111 10.6854 31.013 23.0226 41.6367C23.5899 42.1252 24.4307 42.1206 24.9926 41.6258C37.3313 30.7609 43.5013 22.8769 43.5013 17.5C43.5013 10.9254 39.8591 6.89079 34.4631 6.35119ZM23.9906 38.5052L23.337 37.9317C12.771 28.6121 7.50134 21.6777 7.50134 17.5C7.50134 12.4651 9.97731 9.72238 13.8381 9.33631C17.4199 8.97813 21.2456 10.8426 22.6597 13.6708C23.2125 14.7764 24.7902 14.7764 25.343 13.6708C26.7571 10.8426 30.5828 8.97813 34.1646 9.33631C38.0254 9.72238 40.5013 12.4651 40.5013 17.5C40.5013 21.4574 35.2161 28.4002 24.6444 37.9192L23.9906 38.5052Z" fill="#333333"/></g></svg>