<svg width="25" height="24" viewBox="0 0 25 24" fill="none" xmlns="http://www.w3.org/2000/svg"><path fill-rule="evenodd" clip-rule="evenodd" d="M20.2512 5.5C21.2177 5.5 22.0012 6.2835 22.0012 7.25V16.75C22.0012 17.7165 21.2177 18.5 20.2512 18.5H3.75116C2.78466 18.5 2.00116 17.7165 2.00116 16.75V7.25C2.00116 6.2835 2.78466 5.5 3.75116 5.5H20.2512ZM20.2512 7H3.75116C3.61309 7 3.50116 7.11193 3.50116 7.25V16.75C3.50116 16.8881 3.61309 17 3.75116 17H20.2512C20.3892 17 20.5012 16.8881 20.5012 16.75V7.25C20.5012 7.11193 20.3892 7 20.2512 7ZM15.7319 11.4834C15.7006 11.5815 15.6393 11.6674 15.5567 11.7289L13.9812 12.9733C13.9731 12.9793 13.967 12.9876 13.9638 12.9972C13.9607 13.0067 13.9605 13.017 13.9634 13.0267L14.5078 14.9467C14.536 15.0437 14.5334 15.1471 14.5003 15.2426C14.4673 15.3381 14.4055 15.4211 14.3234 15.48C14.2406 15.5389 14.1416 15.5705 14.0401 15.5705C13.9385 15.5705 13.8395 15.5389 13.7567 15.48L12.0989 14.3689C12.0908 14.3633 12.0811 14.3602 12.0712 14.3602C12.0612 14.3602 12.0516 14.3633 12.0434 14.3689L10.3856 15.48C10.3017 15.5369 10.2023 15.5666 10.101 15.565C9.99962 15.5634 9.90121 15.5307 9.81913 15.4712C9.73705 15.4117 9.6753 15.3284 9.64226 15.2325C9.60923 15.1367 9.60652 15.033 9.6345 14.9356L10.1745 13.0222C10.1771 13.0126 10.1768 13.0024 10.1736 12.9929C10.1704 12.9834 10.1646 12.9751 10.1567 12.9689L8.58783 11.7356C8.50524 11.674 8.44398 11.5882 8.41263 11.4901C8.38128 11.392 8.38142 11.2865 8.41303 11.1885C8.44464 11.0905 8.50614 11.0048 8.5889 10.9435C8.67165 10.8822 8.77152 10.8484 8.8745 10.8467L10.8745 10.7711C10.8843 10.7704 10.8938 10.7669 10.9016 10.761C10.9095 10.7551 10.9155 10.747 10.9189 10.7378L11.6078 8.86445C11.6426 8.76948 11.7056 8.68748 11.7885 8.62954C11.8714 8.5716 11.97 8.54053 12.0712 8.54053C12.1723 8.54053 12.271 8.5716 12.3538 8.62954C12.4367 8.68748 12.4998 8.76948 12.5345 8.86445L13.2256 10.7311C13.229 10.7404 13.235 10.7484 13.2429 10.7543C13.2508 10.7603 13.2602 10.7638 13.2701 10.7645L15.2701 10.84C15.373 10.8417 15.4729 10.8756 15.5557 10.9369C15.6384 10.9982 15.6999 11.0838 15.7315 11.1819C15.7631 11.2799 15.7633 11.3853 15.7319 11.4834Z" fill="#333333"/></svg>