<svg width="48" height="48" viewBox="0 0 48 48" fill="none" xmlns="http://www.w3.org/2000/svg"><g id="box"><path id="box_2" fill-rule="evenodd" clip-rule="evenodd" d="M35.4545 6C36.4334 6 37.293 6.41748 37.8814 7.10062L40.9964 10.8655C41.5624 11.529 41.9189 12.3847 41.9878 13.3074C41.9958 13.3705 42 13.4348 42 13.5C42 13.5169 41.9997 13.5337 41.9992 13.5505C41.9997 13.579 42 13.6077 42 13.6364V38.7045C42 40.6375 40.433 42.2045 38.5 42.2045H9.5C7.567 42.2045 6 40.6375 6 38.7045V13.6364C6 13.6077 6.00028 13.579 6.00083 13.5505C6.00028 13.5337 6 13.5169 6 13.5C6 13.4348 6.00417 13.3705 6.01225 13.3074C6.07686 12.442 6.39446 11.6356 6.90062 10.9913L10.0145 7.2C10.6255 6.45818 11.52 6 12.5455 6H35.4545ZM9 15V38.7045C9 38.9807 9.22386 39.2045 9.5 39.2045H38.5C38.7761 39.2045 39 38.9807 39 38.7045V15H28.5V19C28.5 20.1046 27.6046 21 26.5 21H21.5C20.3954 21 19.5 20.1046 19.5 19V15H9ZM26.5 12H38.0415L35.6143 9.06565C35.5774 9.01922 35.538 9 35.4545 9H12.5455C12.4535 9 12.3954 9.02816 12.3327 9.10422L9.95353 12H21.5H26.5ZM30 33.5C30 32.3954 30.8954 31.5 32 31.5H34C35.1046 31.5 36 32.3954 36 33.5V34C36 35.1046 35.1046 36 34 36H32C30.8954 36 30 35.1046 30 34V33.5Z" fill="#333333"/></g></svg>