<svg width="6" height="6" viewBox="0 0 6 6" fill="none" xmlns="http://www.w3.org/2000/svg"><g id="more"><path id="saiba mais" fill-rule="evenodd" clip-rule="evenodd" d="M3.00017 0.5C4.38017 0.5 5.50017 1.62 5.50017 3C5.50017 4.38 4.38017 5.5 3.00017 5.5C1.62017 5.5 0.500168 4.38 0.500168 3C0.500168 1.62 1.62017 0.5 3.00017 0.5ZM3.00017 0.875C1.82727 0.875 0.875168 1.82711 0.875168 3C0.875168 4.17289 1.82727 5.125 3.00017 5.125C4.17306 5.125 5.12517 4.17289 5.12517 3C5.12517 1.82711 4.17306 0.875 3.00017 0.875ZM2.99865 2.125C2.76181 2.125 2.62365 2.28253 2.62365 2.41562V2.44375C2.62365 2.5473 2.5397 2.63125 2.43615 2.63125C2.33259 2.63125 2.24865 2.5473 2.24865 2.44375V2.41562C2.24865 2.02059 2.61416 1.75 2.99865 1.75C3.38313 1.75 3.74865 2.02059 3.74865 2.41562C3.74865 2.66415 3.61656 2.85213 3.40192 3.03611L3.39641 3.04083C3.25224 3.16438 3.18615 3.22103 3.18615 3.34375V3.45625C3.18615 3.5598 3.1022 3.64375 2.99865 3.64375C2.89509 3.64375 2.81115 3.5598 2.81115 3.45625V3.34375C2.81115 3.0424 3.00827 2.87704 3.12997 2.77496C3.13981 2.7667 3.14916 2.75886 3.15787 2.75139C3.33698 2.59787 3.37365 2.5046 3.37365 2.41562C3.37365 2.28253 3.23548 2.125 2.99865 2.125ZM3.21206 4.03125C3.21206 4.15206 3.11412 4.25 2.99331 4.25C2.8725 4.25 2.77456 4.15206 2.77456 4.03125C2.77456 3.91044 2.8725 3.8125 2.99331 3.8125C3.11412 3.8125 3.21206 3.91044 3.21206 4.03125Z" fill="#333333"/></g></svg>