<svg width="24" height="24" viewBox="0 0 24 24" fill="none" xmlns="http://www.w3.org/2000/svg"><path d="M12 2.92505C17.5063 2.92505 22 6.96942 22 12C22 17.0307 17.5063 21.0751 12 21.0751C10.7437 21.0751 9.51864 20.8645 8.37287 20.4599L8.20974 20.4008L8.10572 20.428L7.94447 20.4735C7.82637 20.5077 7.68718 20.55 7.52735 20.6L7.20384 20.703L6.81919 20.8285C6.34134 20.9862 5.76173 21.1828 5.08075 21.4182L4.24753 21.708C3.67323 21.9088 3.11141 21.3783 3.27903 20.7934L3.55558 19.8211C3.69984 19.3094 3.82049 18.8729 3.91745 18.5119L4.05582 17.9852L4.10576 17.786L4.14572 17.6191C2.76771 16.035 2 14.072 2 12C2 6.96942 6.49374 2.92505 12 2.92505ZM12 4.42505C7.28899 4.42505 3.5 7.83514 3.5 12C3.5 13.8028 4.20919 15.5097 5.48743 16.8665C5.66176 17.0516 5.69279 17.1982 5.69632 17.3903C5.6973 17.4435 5.69381 17.4925 5.6873 17.5457C5.67899 17.6134 5.66471 17.693 5.64412 17.7907L5.63375 17.8391L5.59117 18.0251C5.56408 18.139 5.53125 18.2709 5.49259 18.4211L5.37801 18.8566L5.29932 19.1478L5.11443 19.8178L6.02016 19.5075C7.76234 18.9187 8.24898 18.8161 8.55621 18.9274L8.72542 18.9922C9.75263 19.375 10.8599 19.5751 12 19.5751C16.711 19.5751 20.5 16.165 20.5 12C20.5 7.83514 16.711 4.42505 12 4.42505ZM12 10.8C12.6627 10.8 13.2 11.3373 13.2 12C13.2 12.6628 12.6627 13.2 12 13.2C11.3373 13.2 10.8 12.6628 10.8 12C10.8 11.3373 11.3373 10.8 12 10.8ZM15.8 10.8C16.4627 10.8 17 11.3373 17 12C17 12.6628 16.4627 13.2 15.8 13.2C15.1373 13.2 14.6 12.6628 14.6 12C14.6 11.3373 15.1373 10.8 15.8 10.8ZM8.2 10.8C8.86274 10.8 9.4 11.3373 9.4 12C9.4 12.6628 8.86274 13.2 8.2 13.2C7.53726 13.2 7 12.6628 7 12C7 11.3373 7.53726 10.8 8.2 10.8Z" fill="#333333"/></svg>