<svg width="24" height="24" viewBox="0 0 24 24" fill="none" xmlns="http://www.w3.org/2000/svg"><path d="M15.078 5.85091C16.2536 6.35918 17.401 6.77479 18.2507 7.05092V12.5C18.2507 12.9402 18.1828 13.7306 17.9719 14.5977C17.76 15.4688 17.4171 16.3614 16.9007 17.05C16.3916 17.7288 15.3729 18.5006 14.2196 19.2116C13.2367 19.8175 12.2239 20.3387 11.5007 20.6758C10.7775 20.3387 9.76468 19.8175 8.78175 19.2116C7.62842 18.5006 6.60976 17.7288 6.10067 17.05C5.58423 16.3614 5.2413 15.4688 5.02942 14.5977C4.81851 13.7306 4.75067 12.9402 4.75067 12.5V7.05092C5.60038 6.77479 6.74772 6.35918 7.92331 5.85091C9.16015 5.31616 10.4708 4.6609 11.5007 3.93631C12.5306 4.6609 13.8412 5.31616 15.078 5.85091Z" stroke="#333333" stroke-width="1.5"/><path d="M8.20062 12.5L10.7006 15L14.8673 10" stroke="#333333" stroke-width="1.33333" stroke-linecap="round" stroke-linejoin="round"/></svg>