<svg width="24" height="24" viewBox="0 0 24 24" fill="none" xmlns="http://www.w3.org/2000/svg"><path d="M20.0002 5.5C21.2504 5.5 22.0002 6.28943 22.0002 7.56757V10.375C22.0002 10.7744 21.688 11.1009 21.2943 11.1237L21.2022 11.1263C20.7413 11.1512 20.3752 11.5329 20.3752 12C20.3752 12.4671 20.7413 12.8488 21.2022 12.8737L21.2943 12.8763C21.688 12.8991 22.0002 13.2256 22.0002 13.625V16.4324C22.0002 17.71 21.2502 18.5 20.0002 18.5H4.00018C2.75015 18.5 2.00018 17.71 2.00018 16.4324V13.625C2.00018 13.2256 2.31241 12.8991 2.70612 12.8763L2.79819 12.8737C3.25911 12.8488 3.62518 12.4671 3.62518 12C3.62518 11.5329 3.25911 11.1512 2.79819 11.1263L2.70612 11.1237C2.31241 11.1009 2.00018 10.7744 2.00018 10.375V7.56757C2.00018 6.28943 2.74994 5.5 4.00018 5.5H20.0002ZM20.0409 7.00037H3.95948C3.61607 7.0069 3.51439 7.10198 3.50162 7.47617L3.50018 7.56757V9.74585C4.44433 10.0598 5.12518 10.9504 5.12518 12C5.12518 13.0496 4.44433 13.9402 3.50018 14.2541V16.4324L3.50163 16.5237C3.51493 16.912 3.62436 17 4.00018 17H20.0002C20.3899 17 20.4932 16.9054 20.4998 16.4794L20.5002 14.2541C19.556 13.9402 18.8752 13.0496 18.8752 12C18.8752 10.9504 19.556 10.0598 20.5002 9.74585L20.4998 7.5206C20.4934 7.10943 20.3975 7.00715 20.0409 7.00037ZM9.03168 14.625C9.44589 14.625 9.78168 14.9608 9.78168 15.375C9.78168 15.7892 9.44589 16.125 9.03168 16.125C8.61747 16.125 8.28168 15.7892 8.28168 15.375C8.28168 14.9608 8.61747 14.625 9.03168 14.625ZM14.485 8.16023L14.5423 8.1527C14.6606 8.1527 14.7598 8.24644 14.7857 8.37234L14.7923 8.43769L14.7939 9.01886C15.9363 9.10349 16.6155 9.61331 16.8238 10.1881C16.8622 10.2949 16.8836 10.406 16.8836 10.5214C16.8836 10.8802 16.6059 11.1067 16.1616 11.1067C15.87 11.1067 15.6471 11.002 15.4528 10.7698L15.3712 10.6623L15.3412 10.6214C15.2215 10.4658 15.0614 10.3527 14.8429 10.2962L14.7912 10.286L14.7922 11.3637L15.2387 11.457C16.4089 11.7032 17.015 12.1513 17.0788 13.0245L17.0844 13.1831C17.0844 14.262 16.2401 14.9891 14.8916 15.1138L14.7912 15.12L14.7923 15.5623C14.7923 15.6972 14.7101 15.8102 14.5996 15.8398L14.5423 15.8473C14.424 15.8473 14.3248 15.7536 14.2989 15.6277L14.2923 15.5623L14.2911 15.1292C12.9858 15.0806 12.3638 14.5077 12.154 14.0419C12.0984 13.9137 12.0728 13.7941 12.0728 13.6958C12.0728 13.2856 12.3463 13.0079 12.8419 13.0079C13.1521 13.0079 13.3643 13.1453 13.527 13.3743L13.5938 13.4779L13.6148 13.5118C13.7455 13.7121 13.9621 13.8552 14.3629 13.8795L14.2922 13.8717V12.7837L13.8245 12.6875C12.7189 12.4535 12.0744 11.9679 12.0062 11.0689L12.0002 10.9059C12.0002 9.76513 12.9914 9.04308 14.3629 9.0089L14.2922 9.0117L14.2923 8.43769C14.2923 8.30278 14.3745 8.18977 14.485 8.16023L14.5423 8.1527L14.485 8.16023ZM9.00018 12.375C9.4144 12.375 9.75018 12.7108 9.75018 13.125C9.75018 13.5392 9.4144 13.875 9.00018 13.875C8.58597 13.875 8.25018 13.5392 8.25018 13.125C8.25018 12.7108 8.58597 12.375 9.00018 12.375ZM14.7922 12.8927L14.7935 13.8658C15.1913 13.8148 15.4438 13.6587 15.4438 13.3839C15.4438 13.1498 15.2952 13.0357 14.9583 12.9365L14.8231 12.8998L14.7922 12.8927ZM9.00018 10.125C9.4144 10.125 9.75018 10.4608 9.75018 10.875C9.75018 11.2892 9.4144 11.625 9.00018 11.625C8.58597 11.625 8.25018 11.2892 8.25018 10.875C8.25018 10.4608 8.58597 10.125 9.00018 10.125ZM14.2922 11.2497L14.2911 10.2659C13.8681 10.3045 13.6494 10.472 13.6494 10.7393C13.6494 11.0127 13.8886 11.1537 14.3629 11.269L14.2922 11.2497L14.2911 10.2659L14.2922 11.2497ZM14.7047 10.2693L14.7912 10.286L14.7922 10.2857L14.7047 10.2693ZM9.03168 7.875C9.44589 7.875 9.78168 8.21079 9.78168 8.625C9.78168 9.03921 9.44589 9.375 9.03168 9.375C8.61747 9.375 8.28168 9.03921 8.28168 8.625C8.28168 8.21079 8.61747 7.875 9.03168 7.875Z" fill="#333333"/></svg>