<svg width="232px" height="30px" viewBox="0 0 1602.44 213.31" fill="none" xmlns="http://www.w3.org/2000/svg"><path fill="#fff" d="M49.16 98.74q7.74-.94 11.06-2.44c4-1.67 6-4.31 6-7.88 0-4.34-1.54-7.33-4.59-9s-7.55-2.47-13.45-2.47q-10 0-14.09 4.86a19.84 19.84 0 0 0-4 9.72H3.41q.85-13.92 7.79-22.85 11-14 37.87-14 17.47 0 31 6.89t13.57 26.06v48.61c0 3.37.05 7.44.19 12.24.19 3.63.74 6.1 1.65 7.39a10.06 10.06 0 0 0 4.09 3.21v4.09h-30.1a30.83 30.83 0 0 1-1.75-6c-.33-1.89-.58-4-.77-6.4a57 57 0 0 1-13.29 10.6 40.21 40.21 0 0 1-20.35 5.16c-9.64 0-17.63-2.74-23.89-8.21s-9.45-13.23-9.45-23.28q0-19.53 15.19-28.29c5.54-3.18 13.7-5.43 24.46-6.81zm16.94 12.94a29.83 29.83 0 0 1-5.38 2.66 44.41 44.41 0 0 1-7.45 1.9l-6.31 1.15q-8.87 1.56-12.74 3.79-6.56 3.8-6.54 11.75c0 4.73 1.32 8.16 4 10.25a15.14 15.14 0 0 0 9.72 3.15 29 29 0 0 0 16.72-5.24c5.11-3.49 7.75-9.89 7.94-19.14v-10.27zm184.37-54.04a30.92 30.92 0 0 1 12.36 9.53 30.48 30.48 0 0 1 6 13.62 96.4 96.4 0 0 1 1 15.65l-.19 66.78h-28.42V95.75a22.19 22.19 0 0 0-1.95-9.91q-3.7-7.38-13.62-7.39-11.49 0-15.84 9.53a30 30 0 0 0-2.23 12.17v63.07h-27.9v-63.14c0-6.29-.63-10.85-2-13.71-2.33-5.13-6.89-7.66-13.7-7.66-7.91 0-13.24 2.56-15.95 7.66-1.49 2.92-2.23 7.25-2.23 13v63.76h-28.02V57.44h26.91V72.9q5.14-8.24 9.72-11.75 8.07-6.22 20.9-6.23 12.15 0 19.63 5.35a31.3 31.3 0 0 1 9.15 12.74c3.62-6.2 8.13-10.79 13.51-13.7a41.32 41.32 0 0 1 19.06-4.36 36.08 36.08 0 0 1 13.81 2.69m114.23 1.75a43.36 43.36 0 0 1 18.32 15.69A52.06 52.06 0 0 1 391.45 97a137.11 137.11 0 0 1 .91 21h-77.14c.44 10.63 4.12 18.1 11.1 22.35a28 28 0 0 0 15.26 4c6.32 0 11.46-1.62 15.38-4.86a23.32 23.32 0 0 0 5.71-7.31h28.29c-.74 6.29-4.18 12.66-10.27 19.14q-14.25 15.45-39.87 15.46a57.69 57.69 0 0 1-37.32-13q-16.15-13-16.18-42.43 0-27.51 14.61-42.23t37.9-14.69a60.92 60.92 0 0 1 24.9 5M323.3 83.35c-3.93 4-6.37 9.5-7.39 16.4h47.73q-.75-11-7.39-16.76t-16.42-5.71c-7.11 0-12.63 2-16.53 6.07m142.29-28.57c.36 0 1.16.08 2.39.14v28.39c-1.75-.19-3.29-.33-4.67-.38s-2.47-.11-3.29-.11q-16.72 0-22.46 10.9-3.23 6.14-3.22 18.84v50.63h-27.9V57.25h26.45v18.48c4.28-7.05 8-11.89 11.18-14.47 5.19-4.34 11.91-6.51 20.21-6.51a7.69 7.69 0 0 1 1.31 0M486.85 55.22h28.09v107.97h-28.09zM601.36 95.26a24.05 24.05 0 0 0-4-10.68c-3.1-4.29-8-6.4-14.53-6.4q-14 0-19.19 13.89-2.71 7.38-2.72 19.58 0 11.63 2.72 18.7 5 13.23 18.7 13.21c6.51 0 11.09-1.73 13.84-5.24s4.39-8 5-13.63h28.24a46.47 46.47 0 0 1-9.14 23.92q-13.06 18.16-38.64 18.18t-37.65-15.16q-12.06-15.15-12-39.32 0-27.27 13.32-42.43t36.77-15.15c13.29 0 24.16 3 32.65 8.95s13.48 16.5 15 31.58zm89.68 3.48c5.17-.63 8.85-1.45 11.07-2.44 4-1.67 6-4.31 6-7.88 0-4.34-1.54-7.33-4.59-9s-7.55-2.47-13.45-2.47q-10 0-14.09 4.86a19.94 19.94 0 0 0-4 9.72H645.3q.85-13.92 7.82-22.85 11-14 37.87-14 17.46 0 31 6.89t13.59 26.06v48.61c0 3.37.06 7.44.2 12.24.19 3.63.74 6.1 1.64 7.39a10.12 10.12 0 0 0 4.09 3.21v4.09h-30.12a30.83 30.83 0 0 1-1.75-6c-.33-1.89-.58-4-.77-6.4a57 57 0 0 1-13.29 10.6 40.21 40.21 0 0 1-20.35 5.16q-14.46 0-23.89-8.21t-9.45-23.24q0-19.53 15.19-28.29c5.54-3.18 13.7-5.43 24.49-6.81zm16.92 12.94a28.89 28.89 0 0 1-5.38 2.66 44.25 44.25 0 0 1-7.44 1.9l-6.32 1.15c-5.9 1-10.16 2.31-12.74 3.79q-6.55 3.8-6.54 11.75c0 4.73 1.32 8.16 4 10.25a15.18 15.18 0 0 0 9.72 3.15 29 29 0 0 0 16.73-5.24c5.1-3.49 7.74-9.89 7.93-19.14v-10.27zm137.63-48.36q10.43 8.61 10.41 28.53v71.34h-28.39V98.74q0-8.35-2.23-12.82c-2.69-5.44-7.85-8.16-15.43-8.16q-14 0-19.2 12c-1.81 4.23-2.71 9.58-2.71 16.15v57.36h-27.71V57.44h26.83V72.9c3.54-5.43 6.92-9.36 10.07-11.75q8.54-6.42 21.59-6.42 16.39 0 26.77 8.59m76.43 35.42q7.74-.94 11.06-2.44c4-1.67 6-4.31 6-7.88 0-4.34-1.54-7.33-4.59-9s-7.55-2.47-13.45-2.47q-10 0-14.09 4.86a19.64 19.64 0 0 0-3.92 9.72h-26.72q.85-13.92 7.79-22.85 11-14 37.87-14 17.47 0 31.06 6.89t13.57 26.06v48.61c0 3.37.05 7.44.19 12.24.19 3.63.74 6.1 1.65 7.39a10.06 10.06 0 0 0 4.09 3.21v4.09H942.4a30.83 30.83 0 0 1-1.75-6c-.33-1.89-.58-4-.77-6.4a57 57 0 0 1-13.29 10.6 40.21 40.21 0 0 1-20.35 5.16q-14.46 0-23.89-8.21t-9.45-23.28q0-19.53 15.19-28.29c5.54-3.18 13.7-5.43 24.49-6.81zm16.94 12.94a30.34 30.34 0 0 1-5.36 2.66 44 44 0 0 1-7.44 1.9l-6.31 1.15q-8.87 1.56-12.75 3.79-6.54 3.8-6.53 11.75c0 4.73 1.34 8.16 4 10.25a15.14 15.14 0 0 0 9.72 3.15 29 29 0 0 0 16.72-5.24c5.11-3.49 7.75-9.89 7.94-19.14zm73.46 17.68c.57 4.92 1.86 8.43 3.81 10.49 3.46 3.68 9.83 5.55 19.14 5.55 5.47 0 9.81-.8 13-2.42s4.83-4 4.83-7.3a7.84 7.84 0 0 0-3.9-7.09q-3.87-2.43-29-8.34c-12.06-3-20.51-6.7-25.46-11.18s-7.38-10.76-7.38-19.06q0-14.66 11.53-25.23t32.49-10.55c13.23 0 24.05 2.64 32.37 7.91s13.13 14.42 14.36 27.35h-27.7a16.45 16.45 0 0 0-3-8.46c-3-3.76-8.26-5.65-15.59-5.65-6 0-10.36.93-12.91 2.82s-3.84 4.1-3.84 6.62a7.19 7.19 0 0 0 4.09 6.89q4.08 2.23 28.91 7.69 16.56 3.88 24.83 11.76a26.66 26.66 0 0 1 8.22 19.92q0 15.73-11.72 25.71t-36.28 10q-25 0-37-10.54t-11.92-26.88h28.1zM.19 0h1079.2v27.24H.19zm0 186.07h1079.2v27.24H.19z"/><ellipse fill="#fff" cx="1137.55" cy="110.7" rx="11.35" ry="11.2"/><circle fill="#fff" cx="1137.23" cy="110.77" r="14.13"/><path fill="#fff" d="M1206.27 164.7h-12.05V59.91h12.07v15.78h.4a31.84 31.84 0 0 1 13.28-13.86 38.66 38.66 0 0 1 18.9-4.75 40.36 40.36 0 0 1 12.27 1.62 27.72 27.72 0 0 1 8.55 4.35 25 25 0 0 1 5.84 6.37 43.63 43.63 0 0 1 3.92 7.89q5.22-10.32 14-15.28a39.91 39.91 0 0 1 20-5q10.66 0 17 3.54a25.65 25.65 0 0 1 9.76 9.3 36.34 36.34 0 0 1 4.52 13.25 104.76 104.76 0 0 1 1.11 15.38v66.15h-12.07V92.28q0-11.32-4.73-17.81t-17.6-6.47a29.11 29.11 0 0 0-23.53 11.94 23.1 23.1 0 0 0-3.32 6.17 50.23 50.23 0 0 0-2.11 7.38 59.86 59.86 0 0 0-1.11 7.69q-.3 3.84-.3 7.08v56.44H1259V92.28q0-11.32-4.73-17.81t-17.6-6.47a29.11 29.11 0 0 0-23.53 11.94 23.1 23.1 0 0 0-3.32 6.17 50.23 50.23 0 0 0-2.11 7.38 59.86 59.86 0 0 0-1.11 7.69q-.3 3.84-.3 7.08zm207.95-64.03q6.09-.78 8.15-5.12a15.77 15.77 0 0 0 1.18-6.84q0-9.12-6.42-13.24t-18.38-4.12q-13.82 0-19.6 7.55-3.24 4.17-4.22 12.41h-16.5q.49-19.62 12.61-27.29t28.1-7.68q18.54 0 30.12 7.11t11.48 22.13v60.95a7.77 7.77 0 0 0 1.13 4.44c.75 1.12 2.34 1.67 4.76 1.67a26.07 26.07 0 0 0 2.65-.14c1-.1 2-.25 3.15-.45v13.14a49.44 49.44 0 0 1-6.29 1.48 45 45 0 0 1-5.89.3q-9.13 0-13.26-6.52a25.22 25.22 0 0 1-3-9.78q-5.4 7.11-15.51 12.35a47.81 47.81 0 0 1-22.3 5.23q-14.64 0-23.92-8.93a29.74 29.74 0 0 1-9.28-22.34q0-14.7 9.14-22.79t24-10zm-37.22 48a20.68 20.68 0 0 0 13.25 4.44 40.26 40.26 0 0 0 18.08-4.34q14.73-7.2 14.73-23.57v-14.3a29.79 29.79 0 0 1-8.33 3.47 70.1 70.1 0 0 1-10 2l-10.68 1.38q-9.61 1.28-14.45 4-8.2 4.64-8.2 14.78a14.59 14.59 0 0 0 5.58 12.17zm157.4-17.59q.87 7.35 3.77 10.44 5.11 5.51 18.92 5.51 8.12 0 12.89-2.42t4.78-7.25a7.81 7.81 0 0 0-3.85-7q-3.84-2.42-28.65-8.31-17.85-4.44-25.15-11.11t-7.31-18.95q0-14.58 11.41-25.07t32.12-10.49q19.65 0 32 7.88t14.21 27.2h-27.32a16.38 16.38 0 0 0-3-8.41q-4.53-5.59-15.42-5.6-9 0-12.76 2.8t-3.81 6.57a7.18 7.18 0 0 0 4 6.86q4 2.24 28.59 7.64 16.37 3.87 24.54 11.69a26.63 26.63 0 0 1 8.07 19.81q0 15.66-11.6 25.56t-35.87 9.91q-24.75 0-36.54-10.49t-11.8-26.72zM1466.16 57.04h23.01V164.7h-23.01z"/></svg>