<svg width="99" height="13" viewBox="0 0 99 13" fill="none" xmlns="http://www.w3.org/2000/svg"><path fill-rule="evenodd" clip-rule="evenodd" d="M3.9927 6.75208C3.88554 6.8187 3.77739 6.87257 3.66824 6.91367C3.55909 6.95477 3.4093 6.99255 3.21888 7.02786L2.83802 7.09846C2.48088 7.16094 2.22444 7.23734 2.06884 7.327C1.80509 7.4798 1.67339 7.7163 1.67339 8.03682C1.67339 8.32237 1.75384 8.52887 1.91491 8.65566C2.07581 8.78294 2.27171 8.84641 2.50228 8.84641C2.86788 8.84641 3.20478 8.74084 3.51265 8.52987C3.82068 8.3184 3.98076 7.93324 3.9927 7.3739V6.75208ZM2.96939 5.97212C3.28074 5.93334 3.50368 5.88412 3.63771 5.82545C3.8784 5.72386 3.99866 5.56525 3.99866 5.3503C3.99866 5.08845 3.90644 4.90747 3.72181 4.80753C3.53719 4.7081 3.26648 4.65788 2.90951 4.65788C2.50874 4.65788 2.22493 4.75566 2.05839 4.95122C1.93928 5.0959 1.85983 5.2918 1.82018 5.53807H0.205523C0.240855 4.97873 0.398108 4.519 0.677281 4.1592C1.1215 3.59621 1.88421 3.31464 2.96541 3.31464C3.66906 3.31464 4.29409 3.45352 4.84066 3.73112C5.38707 4.00888 5.66027 4.53259 5.66027 5.3034V8.23666C5.66027 8.44001 5.66425 8.68628 5.67205 8.97565C5.68382 9.19507 5.717 9.3434 5.7719 9.42163C5.82664 9.50002 5.90892 9.56416 6.0184 9.6152V9.86131H4.19822C4.14746 9.73237 4.11213 9.61139 4.09255 9.4977C4.07281 9.38417 4.05722 9.25557 4.04561 9.11088C3.81321 9.3608 3.54549 9.5741 3.24243 9.74994C2.88015 9.9571 2.47059 10.0607 2.01393 10.0607C1.43103 10.0607 0.94982 9.89562 0.569958 9.56548C0.189931 9.23485 0 8.7665 0 8.16025C0 7.37403 0.305548 6.80491 0.916976 6.45274C1.25205 6.26148 1.74504 6.12459 2.39562 6.04239L2.96939 5.97212Z" fill="#F80032"/><path fill-rule="evenodd" clip-rule="evenodd" d="M15.1477 3.47871C15.4217 3.58842 15.6702 3.78001 15.8935 4.05363C16.0735 4.27653 16.1947 4.55049 16.2574 4.87515C16.2964 5.0901 16.3161 5.40532 16.3161 5.81965L16.3045 9.84954H14.5898V5.77855C14.5898 5.53608 14.5507 5.33638 14.4726 5.1801C14.3236 4.88327 14.0496 4.73428 13.6505 4.73428C13.1885 4.73428 12.8695 4.92587 12.6934 5.3092C12.6033 5.51272 12.5582 5.75684 12.5582 6.04272V9.84954H10.873V6.04272C10.873 5.66336 10.834 5.38759 10.7557 5.2154C10.6147 4.90614 10.3389 4.75251 9.92783 4.75251C9.4501 4.75251 9.12913 4.90614 8.96491 5.2154C8.87484 5.3914 8.82972 5.65325 8.82972 6.00162V9.84954H7.13278V3.46711H8.75922V4.4C8.96673 4.06788 9.16247 3.83089 9.34643 3.69002C9.67122 3.43993 10.0921 3.31464 10.6089 3.31464C11.0981 3.31464 11.4936 3.42203 11.795 3.63731C12.0375 3.83669 12.2216 4.09274 12.347 4.4058C12.5661 4.03026 12.8382 3.75448 13.1631 3.57848C13.5075 3.40264 13.8912 3.31464 14.3138 3.31464C14.5958 3.31464 14.8737 3.36933 15.1477 3.47871Z" fill="#F80032"/><path fill-rule="evenodd" clip-rule="evenodd" d="M19.5893 5.05854C19.3527 5.302 19.2043 5.63214 19.1436 6.04812H22.0265C21.996 5.60463 21.8474 5.26803 21.5806 5.03816C21.3139 4.80829 20.9831 4.69311 20.5882 4.69311C20.1587 4.69311 19.8256 4.81476 19.5893 5.05854ZM22.0927 3.61461C22.5391 3.81431 22.9078 4.1297 23.1988 4.56043C23.4607 4.94045 23.6307 5.38063 23.7085 5.88213C23.7536 6.17597 23.772 6.59908 23.7637 7.15129H19.1022C19.1283 7.79316 19.3515 8.24279 19.7717 8.50083C20.0273 8.66092 20.3347 8.7413 20.6943 8.7413C21.0755 8.7413 21.3852 8.64352 21.6234 8.44796C21.7535 8.34206 21.8684 8.19555 21.9679 8.00778H23.6765C23.6314 8.38714 23.4245 8.77263 23.0561 9.16375C22.4827 9.78524 21.68 10.0961 20.6482 10.0961C19.7964 10.0961 19.0448 9.83396 18.3938 9.30959C17.7427 8.78522 17.4172 7.93171 17.4172 6.74956C17.4172 5.64198 17.711 4.79262 18.2989 4.20113C18.8866 3.61013 19.6495 3.31464 20.5875 3.31464C21.1445 3.31464 21.6463 3.4149 22.0927 3.61461Z" fill="#F80032"/><path fill-rule="evenodd" clip-rule="evenodd" d="M28.123 3.31795C28.1446 3.31994 28.1924 3.32276 28.267 3.32673V5.03972C28.1612 5.02795 28.0673 5.02 27.985 5.01635C27.9029 5.01254 27.8362 5.01055 27.7853 5.01055C27.1122 5.01055 26.66 5.22965 26.4291 5.66767C26.2999 5.91395 26.2353 6.29364 26.2353 6.80541V9.86197H24.55V3.46744H26.1471V4.58197C26.4055 4.15605 26.6306 3.86436 26.8226 3.70808C27.1356 3.44606 27.5426 3.31464 28.0437 3.31464C28.0751 3.31464 28.1015 3.31596 28.123 3.31795Z" fill="#F80032"/><path fill-rule="evenodd" clip-rule="evenodd" d="M29.5264 9.83148H31.2233V3.31464H29.5264V9.83148Z" fill="#F80032"/><path fill-rule="evenodd" clip-rule="evenodd" d="M36.3727 5.76114C36.3413 5.52299 36.2609 5.30771 36.1313 5.11563C35.943 4.85808 35.6508 4.72881 35.2543 4.72881C34.6893 4.72881 34.3028 5.00823 34.0948 5.5679C33.985 5.86406 33.9301 6.25834 33.9301 6.75006C33.9301 7.21775 33.985 7.59429 34.0948 7.87901C34.2949 8.41084 34.6717 8.67667 35.225 8.67667C35.6174 8.67667 35.8959 8.57143 36.0608 8.36013C36.2255 8.14898 36.3256 7.87553 36.3609 7.53893H38.0696C38.0303 8.04739 37.846 8.52834 37.5171 8.98194C36.9921 9.71348 36.2143 10.0789 35.1838 10.0789C34.1532 10.0789 33.395 9.77397 32.9091 9.16375C32.4231 8.5537 32.1804 7.7625 32.1804 6.79049C32.1804 5.69386 32.4486 4.84018 32.9856 4.23013C33.5222 3.61991 34.2629 3.31464 35.2072 3.31464C36.0106 3.31464 36.6678 3.49462 37.1792 3.85459C37.6904 4.21455 37.993 4.85029 38.0872 5.76114H36.3727Z" fill="#F80032"/><path fill-rule="evenodd" clip-rule="evenodd" d="M42.808 6.75208C42.701 6.8187 42.5928 6.87257 42.4837 6.91367C42.3743 6.95477 42.2249 6.99255 42.0343 7.02786L41.6534 7.09846C41.2963 7.16094 41.04 7.23734 40.8843 7.327C40.6205 7.4798 40.489 7.7163 40.489 8.03682C40.489 8.32237 40.5693 8.52887 40.7303 8.65566C40.8911 8.78294 41.087 8.84641 41.3177 8.84641C41.6835 8.84641 42.0202 8.74084 42.3281 8.52987C42.6361 8.3184 42.7963 7.93324 42.808 7.3739V6.75208ZM41.785 5.97212C42.0964 5.93334 42.3192 5.88412 42.4534 5.82545C42.6937 5.72386 42.8142 5.56525 42.8142 5.3503C42.8142 5.08845 42.7219 4.90747 42.5373 4.80753C42.3527 4.7081 42.082 4.65788 41.725 4.65788C41.3242 4.65788 41.0404 4.75566 40.8739 4.95122C40.7546 5.0959 40.6753 5.2918 40.6357 5.53807H39.0208C39.0565 4.97873 39.2136 4.519 39.4929 4.1592C39.937 3.59621 40.6999 3.31464 41.7809 3.31464C42.4847 3.31464 43.1096 3.45352 43.6562 3.73112C44.2029 4.00888 44.4764 4.53259 44.4764 5.3034V8.23666C44.4764 8.44001 44.4802 8.68628 44.488 8.97565C44.4998 9.19507 44.5332 9.3434 44.5879 9.42163C44.6428 9.50002 44.7251 9.56416 44.8347 9.6152V9.86131H43.0137C42.9628 9.73237 42.9276 9.61139 42.9082 9.4977C42.8883 9.38417 42.873 9.25557 42.8611 9.11088C42.6289 9.3608 42.361 9.5741 42.0579 9.74994C41.6956 9.9571 41.2861 10.0607 40.8293 10.0607C40.2467 10.0607 39.7653 9.89562 39.3854 9.56548C39.0054 9.23485 38.8155 8.7665 38.8155 8.16025C38.8155 7.37403 39.1209 6.80491 39.7323 6.45274C40.0675 6.26148 40.5605 6.12459 41.2113 6.04239L41.785 5.97212Z" fill="#F80032"/><path fill-rule="evenodd" clip-rule="evenodd" d="M51.0976 3.83387C51.5166 4.17991 51.7261 4.75417 51.7261 5.55564V9.86164H50.0116V5.97212C50.0116 5.63618 49.9669 5.37748 49.8775 5.19783C49.7141 4.86935 49.4033 4.70495 48.945 4.70495C48.3816 4.70495 47.995 4.94575 47.7851 5.42637C47.6762 5.68093 47.6217 6.00527 47.6217 6.40003V9.86164H45.9484V3.47871H47.569V4.4116C47.7833 4.08313 47.9862 3.84646 48.1771 3.70178C48.5201 3.44357 48.9547 3.31464 49.4809 3.31464C50.1398 3.31464 50.6787 3.48749 51.0976 3.83387Z" fill="#F80032"/><path fill-rule="evenodd" clip-rule="evenodd" d="M56.742 6.75208C56.6348 6.8187 56.5265 6.87257 56.4177 6.91367C56.3084 6.95477 56.1584 6.99255 55.9682 7.02786L55.5872 7.09846C55.2304 7.16094 54.9737 7.23734 54.818 7.327C54.5544 7.4798 54.4229 7.7163 54.4229 8.03682C54.4229 8.32237 54.5035 8.52887 54.6642 8.65566C54.8253 8.78294 55.021 8.84641 55.2516 8.84641C55.6172 8.84641 55.9541 8.74084 56.2618 8.52987C56.5702 8.3184 56.7301 7.93324 56.742 7.3739V6.75208ZM55.7187 5.97212C56.03 5.93334 56.2528 5.88412 56.387 5.82545C56.6279 5.72386 56.7478 5.56525 56.7478 5.3503C56.7478 5.08845 56.6556 4.90747 56.4711 4.80753C56.2868 4.7081 56.0158 4.65788 55.6588 4.65788C55.258 4.65788 54.9742 4.75566 54.8075 4.95122C54.6886 5.0959 54.6091 5.2918 54.5696 5.53807H52.955C52.9902 4.97873 53.1474 4.519 53.4267 4.1592C53.8708 3.59621 54.6335 3.31464 55.7147 3.31464C56.4184 3.31464 57.0434 3.45352 57.59 3.73112C58.1364 4.00888 58.4096 4.53259 58.4096 5.3034V8.23666C58.4096 8.44001 58.4135 8.68628 58.4215 8.97565C58.4331 9.19507 58.4665 9.3434 58.5212 9.42163C58.5759 9.50002 58.6582 9.56416 58.7677 9.6152V9.86131H56.9478C56.8968 9.73237 56.8616 9.61139 56.842 9.4977C56.8221 9.38417 56.8067 9.25557 56.7947 9.11088C56.5625 9.3608 56.2949 9.5741 55.9917 9.74994C55.6296 9.9571 55.2201 10.0607 54.7632 10.0607C54.1805 10.0607 53.6991 9.89562 53.3193 9.56548C52.9392 9.23485 52.7493 8.7665 52.7493 8.16025C52.7493 7.37403 53.0547 6.80491 53.6659 6.45274C54.0015 6.26148 54.4943 6.12459 55.1449 6.04239L55.7187 5.97212Z" fill="#F80032"/><path fill-rule="evenodd" clip-rule="evenodd" d="M61.2472 7.84918C61.2825 8.146 61.3595 8.35764 61.4772 8.4826C61.6861 8.70534 62.0711 8.81704 62.6336 8.81704C62.9642 8.81704 63.2266 8.76815 63.4212 8.67037C63.6159 8.57259 63.7133 8.42625 63.7133 8.23052C63.7133 8.04242 63.6351 7.90006 63.4779 7.80228C63.3213 7.7045 62.7374 7.53611 61.7275 7.29763C61 7.11765 60.4878 6.89275 60.1902 6.62311C59.8928 6.35694 59.744 5.97411 59.744 5.47327C59.744 4.88294 59.9765 4.37531 60.4413 3.95104C60.9061 3.52627 61.5603 3.31464 62.4038 3.31464C63.204 3.31464 63.8563 3.47357 64.3602 3.79227C64.8643 4.11114 65.1536 4.66153 65.2281 5.44377H63.5545C63.5315 5.22882 63.4703 5.05895 63.3726 4.93399C63.1876 4.70677 62.8736 4.59291 62.4302 4.59291C62.0651 4.59291 61.805 4.64976 61.6501 4.76345C61.495 4.87664 61.4173 5.00972 61.4173 5.1622C61.4173 5.35411 61.4996 5.49299 61.6647 5.57884C61.8296 5.66883 62.4118 5.8228 63.412 6.04239C64.0784 6.199 64.5785 6.43533 64.9112 6.75221C65.2399 7.07257 65.4044 7.47363 65.4044 7.95475C65.4044 8.58817 65.168 9.10541 64.6954 9.50648C64.2227 9.90688 63.492 10.1076 62.5037 10.1076C61.4956 10.1076 60.7515 9.89528 60.271 9.47118C59.7904 9.04691 59.5504 8.5063 59.5504 7.84918H61.2472Z" fill="#F80032"/><path fill-rule="evenodd" clip-rule="evenodd" d="M0.165924 1.64442H65.3565V4.57764e-05H0.165924V1.64442Z" fill="#F80032"/><path fill-rule="evenodd" clip-rule="evenodd" d="M0.165924 12.9134H65.3565V11.2696H0.165924V12.9134Z" fill="#F80032"/><g clip-path="url(#clip0)"><path d="M73.172 9.86715H72.409V3.25559H73.1715V4.25129H73.1969C73.3798 3.88075 73.6725 3.5755 74.0352 3.37708C74.4012 3.17666 74.8125 3.07341 75.2298 3.07723C75.4918 3.07135 75.7531 3.1057 76.0047 3.17909C76.1995 3.23866 76.3824 3.33168 76.5453 3.45399C76.6905 3.5657 76.8152 3.70176 76.9138 3.85612C77.0125 4.01329 77.0948 4.18011 77.1596 4.35397C77.3799 3.92007 77.6742 3.5988 78.0425 3.39017C78.4108 3.18154 78.8322 3.07737 79.3067 3.07764C79.7556 3.07764 80.1135 3.15209 80.3805 3.30099C80.6341 3.43833 80.8462 3.64104 80.9948 3.88802C81.144 4.14527 81.2414 4.42919 81.2815 4.72378C81.3283 5.0451 81.3516 5.36941 81.3511 5.69412V9.86674H80.589V5.29731C80.589 4.82114 80.4894 4.44683 80.2904 4.17438C80.0914 3.90193 79.7208 3.76557 79.1785 3.7653C78.8889 3.765 78.6032 3.83306 78.3449 3.96393C78.0866 4.09481 77.8628 4.2848 77.6919 4.51842C77.603 4.63709 77.5324 4.76835 77.4823 4.90787C77.4273 5.06069 77.3837 5.21739 77.352 5.37667C77.3185 5.53592 77.2953 5.69716 77.2824 5.85939C77.2697 6.02302 77.2632 6.17029 77.2632 6.3061V9.86511H76.5006V5.29567C76.5006 4.8195 76.4011 4.44519 76.2021 4.17274C76.003 3.9003 75.6324 3.76394 75.0902 3.76366C74.8005 3.76342 74.5149 3.83159 74.2566 3.96262C73.9983 4.09365 73.7747 4.28381 73.604 4.5176C73.5149 4.63617 73.4443 4.76746 73.3943 4.90705C73.338 5.05999 73.2934 5.21698 73.2608 5.37667C73.2271 5.53659 73.2037 5.69851 73.1908 5.86143C73.1781 6.02506 73.172 6.17233 73.172 6.30815V9.86715Z" fill="#F80032"/><path d="M86.3056 5.8267C86.562 5.7937 86.7336 5.68584 86.8204 5.50311C86.8698 5.40303 86.8947 5.25917 86.8949 5.07154C86.8949 4.68782 86.7598 4.40937 86.4895 4.23619C86.2192 4.06301 85.8322 3.97656 85.3285 3.97684C84.7464 3.97684 84.3336 4.13542 84.0901 4.4526C83.9535 4.62796 83.8648 4.88895 83.8239 5.23558H82.782C82.8025 4.4106 83.0679 3.83666 83.5781 3.51375C84.0884 3.19085 84.6802 3.0294 85.3535 3.0294C86.134 3.0294 86.7681 3.1794 87.2557 3.47939C87.739 3.77939 87.9806 4.24465 87.9806 4.87518V8.72054C87.9758 8.81908 88.0007 8.9168 88.0519 9.00116C88.0994 9.07153 88.1997 9.10671 88.3529 9.10671C88.4088 9.10649 88.4647 9.10335 88.5204 9.0973C88.5822 9.09116 88.6485 9.08176 88.719 9.06948V9.89828C88.5888 9.93816 88.4561 9.96932 88.3217 9.99155C88.1982 10.006 88.0738 10.0122 87.9495 10.0104C87.5648 10.0104 87.2856 9.87401 87.112 9.60129C87.0211 9.45593 86.957 9.25029 86.9199 8.98439C86.6922 9.28438 86.3654 9.54347 85.9395 9.76164C85.5038 9.98409 85.0204 10.0974 84.5311 10.0918C83.9149 10.0918 83.4115 9.90401 83.0208 9.52847C82.6301 9.15293 82.4346 8.68263 82.4343 8.11755C82.4343 7.49957 82.6267 7.02026 83.0114 6.67963C83.396 6.339 83.9011 6.12942 84.5266 6.05087L86.3056 5.8267ZM83.9545 8.85717C84.1928 9.04451 84.4888 9.14329 84.792 9.13657C85.1886 9.13565 85.5795 9.04192 85.9334 8.8629C86.5539 8.56018 86.8641 8.06451 86.8638 7.37589V6.47386C86.7004 6.57281 86.523 6.64659 86.3376 6.69272C86.1303 6.74874 85.9192 6.78975 85.7061 6.81545L85.0312 6.90258C84.6265 6.95713 84.3224 7.04208 84.1187 7.15744C83.7734 7.35216 83.6007 7.66306 83.6007 8.09014C83.6007 8.4155 83.7186 8.67158 83.9545 8.8584V8.85717Z" fill="#F80032"/><path d="M93.8979 7.7441C93.9342 8.05309 94.0135 8.27249 94.1358 8.40231C94.3512 8.63439 94.7497 8.7503 95.3312 8.75002C95.6728 8.75002 95.9442 8.69916 96.1454 8.59744C96.3466 8.49571 96.4472 8.34327 96.4472 8.14009C96.4507 8.05086 96.43 7.96235 96.3871 7.88397C96.3443 7.80559 96.281 7.74029 96.2039 7.69501C96.0418 7.59356 95.4385 7.41874 94.3942 7.17056C93.6423 6.98402 93.1127 6.7503 92.8052 6.4694C92.4978 6.19341 92.3441 5.7951 92.3441 5.27448C92.3441 4.66086 92.5844 4.13341 93.0649 3.69215C93.5454 3.25089 94.2215 3.0304 95.0933 3.03067C95.9205 3.03067 96.5948 3.19635 97.116 3.5277C97.6372 3.85906 97.9363 4.43177 98.0132 5.24584H96.2846C96.26 5.02249 96.1971 4.84522 96.0958 4.71404C95.9047 4.47841 95.5801 4.36046 95.122 4.36018C94.7446 4.36018 94.4759 4.41909 94.3156 4.5369C94.1553 4.65472 94.0745 4.79285 94.0732 4.9513C94.0732 5.15066 94.1583 5.29493 94.3287 5.38411C94.4991 5.47766 95.1011 5.63828 96.1347 5.86601C96.8241 6.02964 97.3408 6.27509 97.6848 6.60235C98.0247 6.93589 98.1947 7.35261 98.1947 7.8525C98.1947 8.51112 97.9503 9.04865 97.4616 9.4651C96.9729 9.88154 96.2177 10.0899 95.1961 10.0902C94.1537 10.0902 93.3843 9.86968 92.888 9.42869C92.3916 8.9877 92.1433 8.42576 92.143 7.74287L93.8979 7.7441Z" fill="#F80032"/><path d="M91.0402 3.07439H89.5872V9.86717H91.0402V3.07439Z" fill="#F80032"/><path d="M68.8428 7.34564C69.3404 7.34564 69.7438 6.94271 69.7438 6.44566C69.7438 5.94862 69.3404 5.54568 68.8428 5.54568C68.3452 5.54568 67.9418 5.94862 67.9418 6.44566C67.9418 6.94271 68.3452 7.34564 68.8428 7.34564Z" fill="#F80032"/></g><defs><clipPath id="clip0"><rect width="30.3286" height="12.927" fill="white" transform="translate(67.8665)"/></clipPath></defs></svg>