<svg width="17" height="17" viewBox="0 0 17 17" xmlns="http://www.w3.org/2000/svg"><path fill-rule="evenodd" clip-rule="evenodd" d="M6.5 0C10.0899 0 13 2.91015 13 6.5C13 8.02474 12.475 9.42686 11.5959 10.5355L16 14.9395C16.2928 15.2324 16.2928 15.7072 16 16C15.7072 16.2928 15.2324 16.2928 14.9395 16L10.5355 11.5959C9.42686 12.475 8.02474 13 6.5 13C2.91015 13 0 10.0899 0 6.5C0 2.91015 2.91015 0 6.5 0ZM6.5 1.5C3.73858 1.5 1.5 3.73858 1.5 6.5C1.5 9.26142 3.73858 11.5 6.5 11.5C9.26142 11.5 11.5 9.26142 11.5 6.5C11.5 3.73858 9.26142 1.5 6.5 1.5Z" fill="#666666"/></svg>