<svg width="10" height="18" viewBox="0 0 10 18" fill="none" xmlns="http://www.w3.org/2000/svg"><path d="M8.57417 17C8.51683 16.9994 8.46029 16.9872 8.40841 16.9646C8.35654 16.9418 8.31053 16.9089 8.2735 16.8683L1.19674 9.39466C1.13405 9.34871 1.08365 9.28987 1.04954 9.22278C1.01541 9.15569 0.998499 9.08216 1.0001 9.00797C0.999154 8.93798 1.01391 8.86858 1.04345 8.8042C1.07296 8.73981 1.11661 8.68185 1.17159 8.63401L8.21748 1.13491C8.2539 1.0928 8.30003 1.05881 8.35246 1.03547C8.40489 1.01212 8.46229 1 8.52044 1C8.57858 1 8.63598 1.01212 8.68842 1.03547C8.74085 1.05881 8.78698 1.0928 8.8234 1.13491C8.90462 1.22643 8.94903 1.34136 8.94903 1.45999C8.94903 1.5786 8.90462 1.69353 8.8234 1.78506L2.0439 8.99947L8.87485 16.2128C8.95577 16.3043 9 16.419 9 16.5374C9 16.6557 8.95577 16.7705 8.87485 16.8619C8.83841 16.9037 8.79268 16.9378 8.74078 16.9616C8.68889 16.9854 8.63204 16.9985 8.57417 17Z" fill="#F80032" stroke="#F80032" stroke-width="0.5" stroke-miterlimit="10"/></svg>